{
    "asset" : {
        "generator" : "Khronos glTF Blender I/O v1.1.46",
        "version" : "2.0"
    },
    "scene" : 0,
    "scenes" : [
        {
            "name" : "Scene",
            "nodes" : [
                0,
                1,
                2
            ]
        }
    ],
    "nodes" : [
        {
            "name" : "Light",
            "rotation" : [
                0.16907575726509094,
                0.7558803558349609,
                -0.27217137813568115,
                0.570947527885437
            ],
            "translation" : [
                4.076245307922363,
                5.903861999511719,
                -1.0054539442062378
            ]
        },
        {
            "name" : "Camera",
            "rotation" : [
                0.483536034822464,
                0.33687159419059753,
                -0.20870360732078552,
                0.7804827094078064
            ],
            "translation" : [
                7.358891487121582,
                4.958309173583984,
                6.925790786743164
            ]
        },
        {
            "mesh" : 0,
            "name" : "Circle.004",
            "rotation" : [
                1,
                0,
                0,
                -1.3435884227419592e-07
            ],
            "scale" : [
                0.47700175642967224,
                0.47700178623199463,
                0.47700178623199463
            ],
            "translation" : [
                -0.00821230374276638,
                -0.2326212078332901,
                0.3293505609035492
            ]
        }
    ],
    "materials" : [
        {
            "doubleSided" : true,
            "emissiveFactor" : [
                0,
                0,
                0
            ],
            "name" : "pale",
            "pbrMetallicRoughness" : {
                "baseColorFactor" : [
                    0.044454000890254974,
                    0.044454000890254974,
                    0.044454000890254974,
                    1
                ],
                "metallicFactor" : 0,
                "roughnessFactor" : 0.5
            }
        }
    ],
    "meshes" : [
        {
            "name" : "Circle.004",
            "primitives" : [
                {
                    "attributes" : {
                        "POSITION" : 0,
                        "NORMAL" : 1
                    },
                    "indices" : 2,
                    "material" : 0
                }
            ]
        }
    ],
    "accessors" : [
        {
            "bufferView" : 0,
            "componentType" : 5126,
            "count" : 122,
            "max" : [
                0.2155119925737381,
                -0.45484599471092224,
                0.7900689840316772
            ],
            "min" : [
                -0.18834100663661957,
                -0.5208529829978943,
                0.5893030166625977
            ],
            "type" : "VEC3"
        },
        {
            "bufferView" : 1,
            "componentType" : 5126,
            "count" : 122,
            "type" : "VEC3"
        },
        {
            "bufferView" : 2,
            "componentType" : 5123,
            "count" : 696,
            "type" : "SCALAR"
        }
    ],
    "bufferViews" : [
        {
            "buffer" : 0,
            "byteLength" : 1464,
            "byteOffset" : 0
        },
        {
            "buffer" : 0,
            "byteLength" : 1464,
            "byteOffset" : 1464
        },
        {
            "buffer" : 0,
            "byteLength" : 1392,
            "byteOffset" : 2928
        }
    ],
    "buffers" : [
        {
            "byteLength" : 4320,
            "uri" : "data:application/octet-stream;base64,"
        }
    ]
}
