{
    "asset" : {
        "generator" : "Khronos glTF Blender I/O v1.1.46",
        "version" : "2.0"
    },
    "scene" : 0,
    "scenes" : [
        {
            "name" : "Scene",
            "nodes" : [
                0,
                1,
                2,
                3,
                4,
                5,
                6,
                7,
                8,
                9,
                10,
                11
            ]
        }
    ],
    "nodes" : [
        {
            "name" : "Light",
            "rotation" : [
                0.16907575726509094,
                0.7558803558349609,
                -0.27217137813568115,
                0.570947527885437
            ],
            "translation" : [
                4.076245307922363,
                5.903861999511719,
                -1.0054539442062378
            ]
        },
        {
            "name" : "Camera",
            "rotation" : [
                0.483536034822464,
                0.33687159419059753,
                -0.20870360732078552,
                0.7804827094078064
            ],
            "translation" : [
                7.358891487121582,
                4.958309173583984,
                6.925790786743164
            ]
        },
        {
            "name" : "Light.001",
            "rotation" : [
                0.5232754945755005,
                0.34203392267227173,
                -0.7269423604011536,
                0.284166157245636
            ],
            "translation" : [
                4.076245307922363,
                5.903862476348877,
                -1.0054532289505005
            ]
        },
        {
            "name" : "Camera.001",
            "rotation" : [
                0.8937963247299194,
                0.09062855690717697,
                -0.3857799172401428,
                0.20997287333011627
            ],
            "translation" : [
                7.358891487121582,
                4.958308696746826,
                6.925792217254639
            ]
        },
        {
            "mesh" : 0,
            "name" : "Cylinder.001",
            "rotation" : [
                1,
                0,
                0,
                -1.3435884227419592e-07
            ],
            "scale" : [
                0.47700175642967224,
                0.47700178623199463,
                0.47700178623199463
            ],
            "translation" : [
                -0.19857625663280487,
                -0.17493936419487,
                0.48253485560417175
            ]
        },
        {
            "mesh" : 1,
            "name" : "Cylinder",
            "rotation" : [
                1,
                0,
                0,
                -1.3435884227419592e-07
            ],
            "scale" : [
                0.47700175642967224,
                0.47700178623199463,
                0.47700178623199463
            ],
            "translation" : [
                -0.19857625663280487,
                -0.17493936419487,
                0.48253485560417175
            ]
        },
        {
            "mesh" : 2,
            "name" : "Cube.001",
            "rotation" : [
                1,
                0,
                0,
                -1.3435884227419592e-07
            ],
            "scale" : [
                0.47700175642967224,
                0.47700178623199463,
                0.47700178623199463
            ],
            "translation" : [
                -0.19857625663280487,
                -0.17493936419487,
                0.48253485560417175
            ]
        },
        {
            "mesh" : 3,
            "name" : "Sphere.001",
            "rotation" : [
                1,
                0,
                0,
                -1.3435884227419592e-07
            ],
            "scale" : [
                0.47700175642967224,
                0.47700178623199463,
                0.47700178623199463
            ],
            "translation" : [
                -0.19857625663280487,
                -0.17493936419487,
                0.48253485560417175
            ]
        },
        {
            "mesh" : 4,
            "name" : "Sphere",
            "rotation" : [
                1,
                0,
                0,
                -1.3435884227419592e-07
            ],
            "scale" : [
                0.47700175642967224,
                0.47700178623199463,
                0.47700178623199463
            ],
            "translation" : [
                -0.19857625663280487,
                -0.17493936419487,
                0.48253485560417175
            ]
        },
        {
            "mesh" : 5,
            "name" : "Cube.002",
            "rotation" : [
                1,
                0,
                0,
                -1.3435884227419592e-07
            ],
            "scale" : [
                0.47700175642967224,
                0.47700178623199463,
                0.47700178623199463
            ],
            "translation" : [
                -0.19857625663280487,
                -0.17493936419487,
                0.48253485560417175
            ]
        },
        {
            "mesh" : 6,
            "name" : "Circle.001",
            "rotation" : [
                1,
                0,
                0,
                -1.3435884227419592e-07
            ],
            "scale" : [
                0.47700175642967224,
                0.47700178623199463,
                0.47700178623199463
            ],
            "translation" : [
                -0.19857625663280487,
                -0.17493936419487,
                0.48253485560417175
            ]
        },
        {
            "mesh" : 7,
            "name" : "Circle",
            "rotation" : [
                1,
                0,
                0,
                -1.3435884227419592e-07
            ],
            "scale" : [
                0.47700175642967224,
                0.47700178623199463,
                0.47700178623199463
            ],
            "translation" : [
                -0.19857625663280487,
                -0.17493936419487,
                0.48253485560417175
            ]
        }
    ],
    "materials" : [
        {
            "doubleSided" : true,
            "emissiveFactor" : [
                0,
                0,
                0
            ],
            "name" : "None",
            "pbrMetallicRoughness" : {
                "baseColorFactor" : [
                    0.800000011920929,
                    0.800000011920929,
                    0.800000011920929,
                    1
                ],
                "metallicFactor" : 0,
                "roughnessFactor" : 0.2546440064907074
            }
        },
        {
            "doubleSided" : true,
            "emissiveFactor" : [
                0,
                0,
                0
            ],
            "name" : "Material.004",
            "pbrMetallicRoughness" : {
                "baseColorFactor" : [
                    0.5027260184288025,
                    0.800000011920929,
                    0.800000011920929,
                    1
                ],
                "metallicFactor" : 0,
                "roughnessFactor" : 0.5
            }
        },
        {
            "doubleSided" : true,
            "emissiveFactor" : [
                0,
                0,
                0
            ],
            "name" : "Material.005",
            "pbrMetallicRoughness" : {
                "baseColorFactor" : [
                    0.800000011920929,
                    0.00395999988541007,
                    0,
                    1
                ],
                "metallicFactor" : 0,
                "roughnessFactor" : 0.5
            }
        },
        {
            "doubleSided" : true,
            "emissiveFactor" : [
                0,
                0,
                0
            ],
            "name" : "Material.001",
            "pbrMetallicRoughness" : {
                "baseColorFactor" : [
                    0.035218000411987305,
                    0.035218000411987305,
                    0.035218000411987305,
                    1
                ],
                "metallicFactor" : 0,
                "roughnessFactor" : 0.5
            }
        },
        {
            "doubleSided" : true,
            "emissiveFactor" : [
                0,
                0,
                0
            ],
            "name" : "Material.002",
            "pbrMetallicRoughness" : {
                "baseColorFactor" : [
                    0.2075359970331192,
                    0.27844101190567017,
                    0.2553600072860718,
                    1
                ],
                "metallicFactor" : 0,
                "roughnessFactor" : 0.5
            }
        },
        {
            "doubleSided" : true,
            "emissiveFactor" : [
                0,
                0,
                0
            ],
            "name" : "Material.003",
            "pbrMetallicRoughness" : {
                "baseColorFactor" : [
                    0.7356569766998291,
                    0.60514897108078,
                    0.511896014213562,
                    1
                ],
                "metallicFactor" : 0,
                "roughnessFactor" : 0.5
            }
        }
    ],
    "meshes" : [
        {
            "name" : "Cylinder.001",
            "primitives" : [
                {
                    "attributes" : {
                        "POSITION" : 0,
                        "NORMAL" : 1
                    },
                    "indices" : 2,
                    "material" : 0
                }
            ]
        },
        {
            "name" : "Cylinder",
            "primitives" : [
                {
                    "attributes" : {
                        "POSITION" : 3,
                        "NORMAL" : 4
                    },
                    "indices" : 2,
                    "material" : 0
                }
            ]
        },
        {
            "name" : "Cube.001",
            "primitives" : [
                {
                    "attributes" : {
                        "POSITION" : 5,
                        "NORMAL" : 6
                    },
                    "indices" : 7,
                    "material" : 0
                }
            ]
        },
        {
            "name" : "Sphere.001",
            "primitives" : [
                {
                    "attributes" : {
                        "POSITION" : 8,
                        "NORMAL" : 9
                    },
                    "indices" : 10,
                    "material" : 1
                }
            ]
        },
        {
            "name" : "Sphere",
            "primitives" : [
                {
                    "attributes" : {
                        "POSITION" : 11,
                        "NORMAL" : 12
                    },
                    "indices" : 10,
                    "material" : 2
                }
            ]
        },
        {
            "name" : "Cube.002",
            "primitives" : [
                {
                    "attributes" : {
                        "POSITION" : 13,
                        "NORMAL" : 14
                    },
                    "indices" : 15,
                    "material" : 3
                },
                {
                    "attributes" : {
                        "POSITION" : 16,
                        "NORMAL" : 17
                    },
                    "indices" : 18,
                    "material" : 4
                }
            ]
        },
        {
            "name" : "Circle.001",
            "primitives" : [
                {
                    "attributes" : {
                        "POSITION" : 19,
                        "NORMAL" : 20
                    },
                    "indices" : 21,
                    "material" : 3
                },
                {
                    "attributes" : {
                        "POSITION" : 22,
                        "NORMAL" : 23
                    },
                    "indices" : 24,
                    "material" : 5
                }
            ]
        },
        {
            "name" : "Circle",
            "primitives" : [
                {
                    "attributes" : {
                        "POSITION" : 25,
                        "NORMAL" : 26
                    },
                    "indices" : 27,
                    "material" : 3
                },
                {
                    "attributes" : {
                        "POSITION" : 28,
                        "NORMAL" : 29
                    },
                    "indices" : 30,
                    "material" : 5
                }
            ]
        }
    ],
    "accessors" : [
        {
            "bufferView" : 0,
            "componentType" : 5126,
            "count" : 10,
            "max" : [
                0.40550801157951355,
                -0.39691299200057983,
                1.399196982383728
            ],
            "min" : [
                0.4024760127067566,
                -0.3997969925403595,
                1.367313027381897
            ],
            "type" : "VEC3"
        },
        {
            "bufferView" : 1,
            "componentType" : 5126,
            "count" : 10,
            "type" : "VEC3"
        },
        {
            "bufferView" : 2,
            "componentType" : 5123,
            "count" : 48,
            "type" : "SCALAR"
        },
        {
            "bufferView" : 3,
            "componentType" : 5126,
            "count" : 10,
            "max" : [
                0.42076200246810913,
                -0.39691299200057983,
                1.399196982383728
            ],
            "min" : [
                0.4177300035953522,
                -0.3997969925403595,
                1.367313027381897
            ],
            "type" : "VEC3"
        },
        {
            "bufferView" : 4,
            "componentType" : 5126,
            "count" : 10,
            "type" : "VEC3"
        },
        {
            "bufferView" : 5,
            "componentType" : 5126,
            "count" : 55,
            "max" : [
                0.5740399956703186,
                -0.39503398537635803,
                1.0935029983520508
            ],
            "min" : [
                0.5474730134010315,
                -0.4080139994621277,
                1.0805230140686035
            ],
            "type" : "VEC3"
        },
        {
            "bufferView" : 6,
            "componentType" : 5126,
            "count" : 55,
            "type" : "VEC3"
        },
        {
            "bufferView" : 7,
            "componentType" : 5123,
            "count" : 72,
            "type" : "SCALAR"
        },
        {
            "bufferView" : 8,
            "componentType" : 5126,
            "count" : 92,
            "max" : [
                0.43321898579597473,
                -0.32749301195144653,
                0.6689509749412537
            ],
            "min" : [
                0.38987401127815247,
                -0.3703249990940094,
                0.6348779797554016
            ],
            "type" : "VEC3"
        },
        {
            "bufferView" : 9,
            "componentType" : 5126,
            "count" : 92,
            "type" : "VEC3"
        },
        {
            "bufferView" : 10,
            "componentType" : 5123,
            "count" : 540,
            "type" : "SCALAR"
        },
        {
            "bufferView" : 11,
            "componentType" : 5126,
            "count" : 92,
            "max" : [
                0.43010398745536804,
                -0.32466500997543335,
                1.3668700456619263
            ],
            "min" : [
                0.40613800287246704,
                -0.35634300112724304,
                1.3416709899902344
            ],
            "type" : "VEC3"
        },
        {
            "bufferView" : 12,
            "componentType" : 5126,
            "count" : 92,
            "type" : "VEC3"
        },
        {
            "bufferView" : 13,
            "componentType" : 5126,
            "count" : 766,
            "max" : [
                0.5682470202445984,
                -0.2818950116634369,
                1.399603009223938
            ],
            "min" : [
                0.2550640106201172,
                -0.46980398893356323,
                0.607587993144989
            ],
            "type" : "VEC3"
        },
        {
            "bufferView" : 14,
            "componentType" : 5126,
            "count" : 766,
            "type" : "VEC3"
        },
        {
            "bufferView" : 15,
            "componentType" : 5123,
            "count" : 1203,
            "type" : "SCALAR"
        },
        {
            "bufferView" : 16,
            "componentType" : 5126,
            "count" : 240,
            "max" : [
                0.5682470202445984,
                -0.40748000144958496,
                1.4010109901428223
            ],
            "min" : [
                0.2550640106201172,
                -0.50552898645401,
                0.6038240194320679
            ],
            "type" : "VEC3"
        },
        {
            "bufferView" : 17,
            "componentType" : 5126,
            "count" : 240,
            "type" : "VEC3"
        },
        {
            "bufferView" : 18,
            "componentType" : 5123,
            "count" : 531,
            "type" : "SCALAR"
        },
        {
            "bufferView" : 19,
            "componentType" : 5126,
            "count" : 2801,
            "max" : [
                0.8681380152702332,
                -0.16946899890899658,
                1.3844579458236694
            ],
            "min" : [
                -0.04024399816989899,
                -0.5108780264854431,
                0.6415129899978638
            ],
            "type" : "VEC3"
        },
        {
            "bufferView" : 20,
            "componentType" : 5126,
            "count" : 2801,
            "type" : "VEC3"
        },
        {
            "bufferView" : 21,
            "componentType" : 5123,
            "count" : 7152,
            "type" : "SCALAR"
        },
        {
            "bufferView" : 22,
            "componentType" : 5126,
            "count" : 604,
            "max" : [
                0.8470609784126282,
                -0.4414139986038208,
                1.3717620372772217
            ],
            "min" : [
                -0.019166000187397003,
                -0.4479289948940277,
                0.6542080044746399
            ],
            "type" : "VEC3"
        },
        {
            "bufferView" : 23,
            "componentType" : 5126,
            "count" : 604,
            "type" : "VEC3"
        },
        {
            "bufferView" : 24,
            "componentType" : 5123,
            "count" : 1008,
            "type" : "SCALAR"
        },
        {
            "bufferView" : 25,
            "componentType" : 5126,
            "count" : 1135,
            "max" : [
                0.6837649941444397,
                -0.34504398703575134,
                1.3112850189208984
            ],
            "min" : [
                0.14412899315357208,
                -0.44464099407196045,
                0.7146850228309631
            ],
            "type" : "VEC3"
        },
        {
            "bufferView" : 26,
            "componentType" : 5126,
            "count" : 1135,
            "type" : "VEC3"
        },
        {
            "bufferView" : 27,
            "componentType" : 5123,
            "count" : 3432,
            "type" : "SCALAR"
        },
        {
            "bufferView" : 28,
            "componentType" : 5126,
            "count" : 288,
            "max" : [
                0.6457359790802002,
                -0.430527001619339,
                1.2702909708023071
            ],
            "min" : [
                0.1821579933166504,
                -0.4422999918460846,
                0.7556800246238708
            ],
            "type" : "VEC3"
        },
        {
            "bufferView" : 29,
            "componentType" : 5126,
            "count" : 288,
            "type" : "VEC3"
        },
        {
            "bufferView" : 30,
            "componentType" : 5123,
            "count" : 1296,
            "type" : "SCALAR"
        }
    ],
    "bufferViews" : [
        {
            "buffer" : 0,
            "byteLength" : 120,
            "byteOffset" : 0
        },
        {
            "buffer" : 0,
            "byteLength" : 120,
            "byteOffset" : 120
        },
        {
            "buffer" : 0,
            "byteLength" : 96,
            "byteOffset" : 240
        },
        {
            "buffer" : 0,
            "byteLength" : 120,
            "byteOffset" : 336
        },
        {
            "buffer" : 0,
            "byteLength" : 120,
            "byteOffset" : 456
        },
        {
            "buffer" : 0,
            "byteLength" : 660,
            "byteOffset" : 576
        },
        {
            "buffer" : 0,
            "byteLength" : 660,
            "byteOffset" : 1236
        },
        {
            "buffer" : 0,
            "byteLength" : 144,
            "byteOffset" : 1896
        },
        {
            "buffer" : 0,
            "byteLength" : 1104,
            "byteOffset" : 2040
        },
        {
            "buffer" : 0,
            "byteLength" : 1104,
            "byteOffset" : 3144
        },
        {
            "buffer" : 0,
            "byteLength" : 1080,
            "byteOffset" : 4248
        },
        {
            "buffer" : 0,
            "byteLength" : 1104,
            "byteOffset" : 5328
        },
        {
            "buffer" : 0,
            "byteLength" : 1104,
            "byteOffset" : 6432
        },
        {
            "buffer" : 0,
            "byteLength" : 9192,
            "byteOffset" : 7536
        },
        {
            "buffer" : 0,
            "byteLength" : 9192,
            "byteOffset" : 16728
        },
        {
            "buffer" : 0,
            "byteLength" : 2406,
            "byteOffset" : 25920
        },
        {
            "buffer" : 0,
            "byteLength" : 2880,
            "byteOffset" : 28328
        },
        {
            "buffer" : 0,
            "byteLength" : 2880,
            "byteOffset" : 31208
        },
        {
            "buffer" : 0,
            "byteLength" : 1062,
            "byteOffset" : 34088
        },
        {
            "buffer" : 0,
            "byteLength" : 33612,
            "byteOffset" : 35152
        },
        {
            "buffer" : 0,
            "byteLength" : 33612,
            "byteOffset" : 68764
        },
        {
            "buffer" : 0,
            "byteLength" : 14304,
            "byteOffset" : 102376
        },
        {
            "buffer" : 0,
            "byteLength" : 7248,
            "byteOffset" : 116680
        },
        {
            "buffer" : 0,
            "byteLength" : 7248,
            "byteOffset" : 123928
        },
        {
            "buffer" : 0,
            "byteLength" : 2016,
            "byteOffset" : 131176
        },
        {
            "buffer" : 0,
            "byteLength" : 13620,
            "byteOffset" : 133192
        },
        {
            "buffer" : 0,
            "byteLength" : 13620,
            "byteOffset" : 146812
        },
        {
            "buffer" : 0,
            "byteLength" : 6864,
            "byteOffset" : 160432
        },
        {
            "buffer" : 0,
            "byteLength" : 3456,
            "byteOffset" : 167296
        },
        {
            "buffer" : 0,
            "byteLength" : 3456,
            "byteOffset" : 170752
        },
        {
            "buffer" : 0,
            "byteLength" : 2592,
            "byteOffset" : 174208
        }
    ],
    "buffers" : [
        {
            "byteLength" : 176800,
            "uri" : "data:application/octet-stream;base64,"
        }
    ]
}
