{
    "asset" : {
        "generator" : "Khronos glTF Blender I/O v1.1.46",
        "version" : "2.0"
    },
    "scene" : 0,
    "scenes" : [
        {
            "name" : "Scene",
            "nodes" : [
                0,
                1,
                2,
                3
            ]
        }
    ],
    "nodes" : [
        {
            "name" : "Light",
            "rotation" : [
                0.16907575726509094,
                0.7558803558349609,
                -0.27217137813568115,
                0.570947527885437
            ],
            "translation" : [
                4.076245307922363,
                5.903861999511719,
                -1.0054539442062378
            ]
        },
        {
            "name" : "Camera",
            "rotation" : [
                0.483536034822464,
                0.33687159419059753,
                -0.20870360732078552,
                0.7804827094078064
            ],
            "translation" : [
                7.358891487121582,
                4.958309173583984,
                6.925790786743164
            ]
        },
        {
            "mesh" : 0,
            "name" : "flat",
            "rotation" : [
                0.7071067690849304,
                0,
                0,
                0.7071067690849304
            ],
            "scale" : [
                0.06460607051849365,
                0.06460607051849365,
                0.06460607051849365
            ],
            "translation" : [
                1.0240864753723145,
                0.5164476037025452,
                -29.908702850341797
            ]
        },
        {
            "name" : "flat.001",
            "rotation" : [
                0.7071067690849304,
                0,
                0,
                0.7071067690849304
            ]
        }
    ],
    "materials" : [
        {
            "doubleSided" : true,
            "emissiveFactor" : [
                0,
                0,
                0
            ],
            "name" : "ground_1",
            "pbrMetallicRoughness" : {
                "baseColorFactor" : [
                    0.658823549747467,
                    0.658823549747467,
                    0.658823549747467,
                    1
                ],
                "metallicFactor" : 0,
                "roughnessFactor" : 0.9666666388511658
            }
        },
        {
            "doubleSided" : true,
            "emissiveFactor" : [
                0,
                0,
                0
            ],
            "name" : "wall_1_2",
            "pbrMetallicRoughness" : {
                "baseColorFactor" : [
                    1,
                    1,
                    1,
                    1
                ],
                "metallicFactor" : 0,
                "roughnessFactor" : 0.9666666388511658
            }
        },
        {
            "doubleSided" : true,
            "emissiveFactor" : [
                0,
                0,
                0
            ],
            "name" : "dkdkgrey",
            "pbrMetallicRoughness" : {
                "baseColorFactor" : [
                    0.012199999764561653,
                    0.012199999764561653,
                    0.012199999764561653,
                    1
                ],
                "metallicFactor" : 0,
                "roughnessFactor" : 0.7418010830879211
            }
        },
        {
            "doubleSided" : true,
            "emissiveFactor" : [
                0,
                0,
                0
            ],
            "name" : "dkgrey",
            "pbrMetallicRoughness" : {
                "baseColorFactor" : [
                    0.04899999871850014,
                    0.04899999871850014,
                    0.04899999871850014,
                    1
                ],
                "metallicFactor" : 0,
                "roughnessFactor" : 0.7418010830879211
            }
        },
        {
            "doubleSided" : true,
            "emissiveFactor" : [
                0,
                0,
                0
            ],
            "name" : "flwhite",
            "pbrMetallicRoughness" : {
                "baseColorFactor" : [
                    0.9836999773979187,
                    0.930899977684021,
                    0.8392000198364258,
                    1
                ],
                "metallicFactor" : 0,
                "roughnessFactor" : 0.6228764057159424
            }
        },
        {
            "doubleSided" : true,
            "emissiveFactor" : [
                0,
                0,
                0
            ],
            "name" : "yellowbrt",
            "pbrMetallicRoughness" : {
                "baseColorFactor" : [
                    1,
                    0.7836999893188477,
                    0,
                    1
                ],
                "metallicFactor" : 0,
                "roughnessFactor" : 0.7418010830879211
            }
        }
    ],
    "meshes" : [
        {
            "name" : "flat",
            "primitives" : [
                {
                    "attributes" : {
                        "POSITION" : 0,
                        "NORMAL" : 1
                    },
                    "indices" : 2,
                    "material" : 0
                },
                {
                    "attributes" : {
                        "POSITION" : 3,
                        "NORMAL" : 4
                    },
                    "indices" : 5,
                    "material" : 1
                },
                {
                    "attributes" : {
                        "POSITION" : 6,
                        "NORMAL" : 7
                    },
                    "indices" : 8,
                    "material" : 2
                },
                {
                    "attributes" : {
                        "POSITION" : 9,
                        "NORMAL" : 10
                    },
                    "indices" : 11,
                    "material" : 3
                },
                {
                    "attributes" : {
                        "POSITION" : 12,
                        "NORMAL" : 13
                    },
                    "indices" : 14,
                    "material" : 4
                },
                {
                    "attributes" : {
                        "POSITION" : 15,
                        "NORMAL" : 16
                    },
                    "indices" : 17,
                    "material" : 5
                }
            ]
        }
    ],
    "accessors" : [
        {
            "bufferView" : 0,
            "componentType" : 5126,
            "count" : 8,
            "max" : [
                731.75,
                918.3491821289062,
                0
            ],
            "min" : [
                -8.65997314453125,
                181.7492218017578,
                0
            ],
            "type" : "VEC3"
        },
        {
            "bufferView" : 1,
            "componentType" : 5126,
            "count" : 8,
            "type" : "VEC3"
        },
        {
            "bufferView" : 2,
            "componentType" : 5123,
            "count" : 24,
            "type" : "SCALAR"
        },
        {
            "bufferView" : 3,
            "componentType" : 5126,
            "count" : 86,
            "max" : [
                731.75,
                918.3491821289062,
                0
            ],
            "min" : [
                -8.65997314453125,
                181.7492218017578,
                -243.83999633789062
            ],
            "type" : "VEC3"
        },
        {
            "bufferView" : 4,
            "componentType" : 5126,
            "count" : 86,
            "type" : "VEC3"
        },
        {
            "bufferView" : 5,
            "componentType" : 5123,
            "count" : 162,
            "type" : "SCALAR"
        },
        {
            "bufferView" : 6,
            "componentType" : 5126,
            "count" : 670,
            "max" : [
                205.1643524169922,
                287.5812683105469,
                -70.22712707519531
            ],
            "min" : [
                52.06766891479492,
                270.342041015625,
                -71.5257797241211
            ],
            "type" : "VEC3"
        },
        {
            "bufferView" : 7,
            "componentType" : 5126,
            "count" : 670,
            "type" : "VEC3"
        },
        {
            "bufferView" : 8,
            "componentType" : 5123,
            "count" : 864,
            "type" : "SCALAR"
        },
        {
            "bufferView" : 9,
            "componentType" : 5126,
            "count" : 394,
            "max" : [
                220.88002014160156,
                300.20001220703125,
                0
            ],
            "min" : [
                38.00001525878906,
                224,
                -81.91500091552734
            ],
            "type" : "VEC3"
        },
        {
            "bufferView" : 10,
            "componentType" : 5126,
            "count" : 394,
            "type" : "VEC3"
        },
        {
            "bufferView" : 11,
            "componentType" : 5123,
            "count" : 732,
            "type" : "SCALAR"
        },
        {
            "bufferView" : 12,
            "componentType" : 5126,
            "count" : 30,
            "max" : [
                209.77659606933594,
                297.22039794921875,
                -68.42899322509766
            ],
            "min" : [
                49.10344314575195,
                270.342041015625,
                -70.12723541259766
            ],
            "type" : "VEC3"
        },
        {
            "bufferView" : 13,
            "componentType" : 5126,
            "count" : 30,
            "type" : "VEC3"
        },
        {
            "bufferView" : 14,
            "componentType" : 5123,
            "count" : 48,
            "type" : "SCALAR"
        },
        {
            "bufferView" : 15,
            "componentType" : 5126,
            "count" : 477,
            "max" : [
                214.39366149902344,
                278.5260314941406,
                -6.441215515136719
            ],
            "min" : [
                44.57651138305664,
                263.65728759765625,
                -75.76478576660156
            ],
            "type" : "VEC3"
        },
        {
            "bufferView" : 16,
            "componentType" : 5126,
            "count" : 477,
            "type" : "VEC3"
        },
        {
            "bufferView" : 17,
            "componentType" : 5123,
            "count" : 1578,
            "type" : "SCALAR"
        }
    ],
    "bufferViews" : [
        {
            "buffer" : 0,
            "byteLength" : 96,
            "byteOffset" : 0
        },
        {
            "buffer" : 0,
            "byteLength" : 96,
            "byteOffset" : 96
        },
        {
            "buffer" : 0,
            "byteLength" : 48,
            "byteOffset" : 192
        },
        {
            "buffer" : 0,
            "byteLength" : 1032,
            "byteOffset" : 240
        },
        {
            "buffer" : 0,
            "byteLength" : 1032,
            "byteOffset" : 1272
        },
        {
            "buffer" : 0,
            "byteLength" : 324,
            "byteOffset" : 2304
        },
        {
            "buffer" : 0,
            "byteLength" : 8040,
            "byteOffset" : 2628
        },
        {
            "buffer" : 0,
            "byteLength" : 8040,
            "byteOffset" : 10668
        },
        {
            "buffer" : 0,
            "byteLength" : 1728,
            "byteOffset" : 18708
        },
        {
            "buffer" : 0,
            "byteLength" : 4728,
            "byteOffset" : 20436
        },
        {
            "buffer" : 0,
            "byteLength" : 4728,
            "byteOffset" : 25164
        },
        {
            "buffer" : 0,
            "byteLength" : 1464,
            "byteOffset" : 29892
        },
        {
            "buffer" : 0,
            "byteLength" : 360,
            "byteOffset" : 31356
        },
        {
            "buffer" : 0,
            "byteLength" : 360,
            "byteOffset" : 31716
        },
        {
            "buffer" : 0,
            "byteLength" : 96,
            "byteOffset" : 32076
        },
        {
            "buffer" : 0,
            "byteLength" : 5724,
            "byteOffset" : 32172
        },
        {
            "buffer" : 0,
            "byteLength" : 5724,
            "byteOffset" : 37896
        },
        {
            "buffer" : 0,
            "byteLength" : 3156,
            "byteOffset" : 43620
        }
    ],
    "buffers" : [
        {
            "byteLength" : 46776,
            "uri" : "data:application/octet-stream;base64,"
        }
    ]
}
