{
    "asset" : {
        "generator" : "Khronos glTF Blender I/O v1.1.46",
        "version" : "2.0"
    },
    "scene" : 0,
    "scenes" : [
        {
            "name" : "Scene",
            "nodes" : [
                0,
                1,
                2
            ]
        }
    ],
    "nodes" : [
        {
            "name" : "Light",
            "rotation" : [
                0.16907575726509094,
                0.7558803558349609,
                -0.27217137813568115,
                0.570947527885437
            ],
            "translation" : [
                4.076245307922363,
                5.903861999511719,
                -1.0054539442062378
            ]
        },
        {
            "name" : "Camera",
            "rotation" : [
                0.483536034822464,
                0.33687159419059753,
                -0.20870360732078552,
                0.7804827094078064
            ],
            "translation" : [
                7.358891487121582,
                4.958309173583984,
                6.925790786743164
            ]
        },
        {
            "mesh" : 0,
            "name" : "3d-model",
            "rotation" : [
                0.7071067690849304,
                0,
                0,
                0.7071067690849304
            ]
        }
    ],
    "materials" : [
        {
            "doubleSided" : true,
            "emissiveFactor" : [
                0,
                0,
                0
            ],
            "name" : "wire_134110008",
            "pbrMetallicRoughness" : {
                "baseColorFactor" : [
                    0.5254999995231628,
                    0.43140000104904175,
                    0.03139999881386757,
                    1
                ],
                "metallicFactor" : 0,
                "roughnessFactor" : 0.8114382028579712
            }
        },
        {
            "doubleSided" : true,
            "emissiveFactor" : [
                0,
                0,
                0
            ],
            "name" : "wire_087224198",
            "pbrMetallicRoughness" : {
                "baseColorFactor" : [
                    0.34119999408721924,
                    0.8784000277519226,
                    0.7764999866485596,
                    1
                ],
                "metallicFactor" : 0,
                "roughnessFactor" : 0.8114382028579712
            }
        },
        {
            "doubleSided" : true,
            "emissiveFactor" : [
                0,
                0,
                0
            ],
            "name" : "wire_229166215",
            "pbrMetallicRoughness" : {
                "baseColorFactor" : [
                    0.8980000019073486,
                    0.6510000228881836,
                    0.8431000113487244,
                    1
                ],
                "metallicFactor" : 0,
                "roughnessFactor" : 0.8114382028579712
            }
        },
        {
            "doubleSided" : true,
            "emissiveFactor" : [
                0,
                0,
                0
            ],
            "name" : "wire_224198087",
            "pbrMetallicRoughness" : {
                "baseColorFactor" : [
                    0.8784000277519226,
                    0.7764999866485596,
                    0.34119999408721924,
                    1
                ],
                "metallicFactor" : 0,
                "roughnessFactor" : 0.8114382028579712
            }
        },
        {
            "doubleSided" : true,
            "emissiveFactor" : [
                0,
                0,
                0
            ],
            "name" : "wire_177028149",
            "pbrMetallicRoughness" : {
                "baseColorFactor" : [
                    0.694100022315979,
                    0.10980000346899033,
                    0.5842999815940857,
                    1
                ],
                "metallicFactor" : 0,
                "roughnessFactor" : 0.8114382028579712
            }
        },
        {
            "doubleSided" : true,
            "emissiveFactor" : [
                0,
                0,
                0
            ],
            "name" : "wire_006134006",
            "pbrMetallicRoughness" : {
                "baseColorFactor" : [
                    0.023499999195337296,
                    0.5254999995231628,
                    0.023499999195337296,
                    1
                ],
                "metallicFactor" : 0,
                "roughnessFactor" : 0.8114382028579712
            }
        },
        {
            "doubleSided" : true,
            "emissiveFactor" : [
                0,
                0,
                0
            ],
            "name" : "wire_028089177",
            "pbrMetallicRoughness" : {
                "baseColorFactor" : [
                    0.10980000346899033,
                    0.3490000069141388,
                    0.694100022315979,
                    1
                ],
                "metallicFactor" : 0,
                "roughnessFactor" : 0.8114382028579712
            }
        },
        {
            "doubleSided" : true,
            "emissiveFactor" : [
                0,
                0,
                0
            ],
            "name" : "wire_143224087",
            "pbrMetallicRoughness" : {
                "baseColorFactor" : [
                    0.5608000159263611,
                    0.8784000277519226,
                    0.34119999408721924,
                    1
                ],
                "metallicFactor" : 0,
                "roughnessFactor" : 0.8114382028579712
            }
        },
        {
            "doubleSided" : true,
            "emissiveFactor" : [
                0,
                0,
                0
            ],
            "name" : "wire_134006006",
            "pbrMetallicRoughness" : {
                "baseColorFactor" : [
                    0.5254999995231628,
                    0.023499999195337296,
                    0.023499999195337296,
                    1
                ],
                "metallicFactor" : 0,
                "roughnessFactor" : 0.8114382028579712
            }
        },
        {
            "doubleSided" : true,
            "emissiveFactor" : [
                0,
                0,
                0
            ],
            "name" : "wire_224086086",
            "pbrMetallicRoughness" : {
                "baseColorFactor" : [
                    0.8784000277519226,
                    0.33730000257492065,
                    0.33730000257492065,
                    1
                ],
                "metallicFactor" : 0,
                "roughnessFactor" : 0.8114382028579712
            }
        }
    ],
    "meshes" : [
        {
            "name" : "3d-model",
            "primitives" : [
                {
                    "attributes" : {
                        "POSITION" : 0,
                        "NORMAL" : 1,
                        "TEXCOORD_0" : 2
                    },
                    "indices" : 3,
                    "material" : 0
                },
                {
                    "attributes" : {
                        "POSITION" : 4,
                        "NORMAL" : 5,
                        "TEXCOORD_0" : 6
                    },
                    "indices" : 7,
                    "material" : 1
                },
                {
                    "attributes" : {
                        "POSITION" : 8,
                        "NORMAL" : 9,
                        "TEXCOORD_0" : 10
                    },
                    "indices" : 11,
                    "material" : 2
                },
                {
                    "attributes" : {
                        "POSITION" : 12,
                        "NORMAL" : 13,
                        "TEXCOORD_0" : 14
                    },
                    "indices" : 15,
                    "material" : 3
                },
                {
                    "attributes" : {
                        "POSITION" : 16,
                        "NORMAL" : 17,
                        "TEXCOORD_0" : 18
                    },
                    "indices" : 19,
                    "material" : 4
                },
                {
                    "attributes" : {
                        "POSITION" : 20,
                        "NORMAL" : 21,
                        "TEXCOORD_0" : 22
                    },
                    "indices" : 23,
                    "material" : 5
                },
                {
                    "attributes" : {
                        "POSITION" : 24,
                        "NORMAL" : 25,
                        "TEXCOORD_0" : 26
                    },
                    "indices" : 27,
                    "material" : 6
                },
                {
                    "attributes" : {
                        "POSITION" : 28,
                        "NORMAL" : 29,
                        "TEXCOORD_0" : 30
                    },
                    "indices" : 31,
                    "material" : 7
                },
                {
                    "attributes" : {
                        "POSITION" : 32,
                        "NORMAL" : 33,
                        "TEXCOORD_0" : 34
                    },
                    "indices" : 35,
                    "material" : 8
                },
                {
                    "attributes" : {
                        "POSITION" : 36,
                        "NORMAL" : 37,
                        "TEXCOORD_0" : 38
                    },
                    "indices" : 39,
                    "material" : 9
                }
            ]
        }
    ],
    "accessors" : [
        {
            "bufferView" : 0,
            "componentType" : 5126,
            "count" : 8942,
            "max" : [
                7895.1416015625,
                6653.7666015625,
                -63.833900451660156
            ],
            "min" : [
                -7784.6748046875,
                -3958.087890625,
                -2055.90283203125
            ],
            "type" : "VEC3"
        },
        {
            "bufferView" : 1,
            "componentType" : 5126,
            "count" : 8942,
            "type" : "VEC3"
        },
        {
            "bufferView" : 2,
            "componentType" : 5126,
            "count" : 8942,
            "type" : "VEC2"
        },
        {
            "bufferView" : 3,
            "componentType" : 5123,
            "count" : 17259,
            "type" : "SCALAR"
        },
        {
            "bufferView" : 4,
            "componentType" : 5126,
            "count" : 2620,
            "max" : [
                3014.801025390625,
                6659.5830078125,
                -76.70279693603516
            ],
            "min" : [
                -7476.17724609375,
                -224.8614959716797,
                -1397.502685546875
            ],
            "type" : "VEC3"
        },
        {
            "bufferView" : 5,
            "componentType" : 5126,
            "count" : 2620,
            "type" : "VEC3"
        },
        {
            "bufferView" : 6,
            "componentType" : 5126,
            "count" : 2620,
            "type" : "VEC2"
        },
        {
            "bufferView" : 7,
            "componentType" : 5123,
            "count" : 9144,
            "type" : "SCALAR"
        },
        {
            "bufferView" : 8,
            "componentType" : 5126,
            "count" : 4426,
            "max" : [
                4360.82861328125,
                6601.86572265625,
                -76.70279693603516
            ],
            "min" : [
                -7784.67431640625,
                -3733.4189453125,
                -1044.389404296875
            ],
            "type" : "VEC3"
        },
        {
            "bufferView" : 9,
            "componentType" : 5126,
            "count" : 4426,
            "type" : "VEC3"
        },
        {
            "bufferView" : 10,
            "componentType" : 5126,
            "count" : 4426,
            "type" : "VEC2"
        },
        {
            "bufferView" : 11,
            "componentType" : 5123,
            "count" : 13410,
            "type" : "SCALAR"
        },
        {
            "bufferView" : 12,
            "componentType" : 5126,
            "count" : 2814,
            "max" : [
                7875.1416015625,
                6648.9462890625,
                -75.96849822998047
            ],
            "min" : [
                -7784.6748046875,
                -3641.005615234375,
                -1127.6492919921875
            ],
            "type" : "VEC3"
        },
        {
            "bufferView" : 13,
            "componentType" : 5126,
            "count" : 2814,
            "type" : "VEC3"
        },
        {
            "bufferView" : 14,
            "componentType" : 5126,
            "count" : 2814,
            "type" : "VEC2"
        },
        {
            "bufferView" : 15,
            "componentType" : 5123,
            "count" : 8313,
            "type" : "SCALAR"
        },
        {
            "bufferView" : 16,
            "componentType" : 5126,
            "count" : 17341,
            "max" : [
                8134.5498046875,
                6953.099609375,
                0
            ],
            "min" : [
                -8134.5498046875,
                -6953.099609375,
                -2620.6025390625
            ],
            "type" : "VEC3"
        },
        {
            "bufferView" : 17,
            "componentType" : 5126,
            "count" : 17341,
            "type" : "VEC3"
        },
        {
            "bufferView" : 18,
            "componentType" : 5126,
            "count" : 17341,
            "type" : "VEC2"
        },
        {
            "bufferView" : 19,
            "componentType" : 5123,
            "count" : 41631,
            "type" : "SCALAR"
        },
        {
            "bufferView" : 20,
            "componentType" : 5126,
            "count" : 3428,
            "max" : [
                4553.47509765625,
                6624.90673828125,
                -76.70269775390625
            ],
            "min" : [
                -7759.2744140625,
                -3737.146484375,
                -1344.299072265625
            ],
            "type" : "VEC3"
        },
        {
            "bufferView" : 21,
            "componentType" : 5126,
            "count" : 3428,
            "type" : "VEC3"
        },
        {
            "bufferView" : 22,
            "componentType" : 5126,
            "count" : 3428,
            "type" : "VEC2"
        },
        {
            "bufferView" : 23,
            "componentType" : 5123,
            "count" : 14535,
            "type" : "SCALAR"
        },
        {
            "bufferView" : 24,
            "componentType" : 5126,
            "count" : 2435,
            "max" : [
                7306.2646484375,
                6653.7666015625,
                -76.70279693603516
            ],
            "min" : [
                -7759.27392578125,
                -3938.087890625,
                -1844.7113037109375
            ],
            "type" : "VEC3"
        },
        {
            "bufferView" : 25,
            "componentType" : 5126,
            "count" : 2435,
            "type" : "VEC3"
        },
        {
            "bufferView" : 26,
            "componentType" : 5126,
            "count" : 2435,
            "type" : "VEC2"
        },
        {
            "bufferView" : 27,
            "componentType" : 5123,
            "count" : 12357,
            "type" : "SCALAR"
        },
        {
            "bufferView" : 28,
            "componentType" : 5126,
            "count" : 1300,
            "max" : [
                -2238.7119140625,
                6658.36328125,
                -76.70269775390625
            ],
            "min" : [
                -7783.32666015625,
                -1129.1148681640625,
                -893.8591918945312
            ],
            "type" : "VEC3"
        },
        {
            "bufferView" : 29,
            "componentType" : 5126,
            "count" : 1300,
            "type" : "VEC3"
        },
        {
            "bufferView" : 30,
            "componentType" : 5126,
            "count" : 1300,
            "type" : "VEC2"
        },
        {
            "bufferView" : 31,
            "componentType" : 5123,
            "count" : 3450,
            "type" : "SCALAR"
        },
        {
            "bufferView" : 32,
            "componentType" : 5126,
            "count" : 1950,
            "max" : [
                4302.8173828125,
                6652.017578125,
                -76.70279693603516
            ],
            "min" : [
                -7784.67431640625,
                -3733.763671875,
                -1344.299072265625
            ],
            "type" : "VEC3"
        },
        {
            "bufferView" : 33,
            "componentType" : 5126,
            "count" : 1950,
            "type" : "VEC3"
        },
        {
            "bufferView" : 34,
            "componentType" : 5126,
            "count" : 1950,
            "type" : "VEC2"
        },
        {
            "bufferView" : 35,
            "componentType" : 5123,
            "count" : 6363,
            "type" : "SCALAR"
        },
        {
            "bufferView" : 36,
            "componentType" : 5126,
            "count" : 3190,
            "max" : [
                4676.47412109375,
                6653.7666015625,
                -76.70269775390625
            ],
            "min" : [
                -7784.67431640625,
                -3998.181640625,
                -1344.299072265625
            ],
            "type" : "VEC3"
        },
        {
            "bufferView" : 37,
            "componentType" : 5126,
            "count" : 3190,
            "type" : "VEC3"
        },
        {
            "bufferView" : 38,
            "componentType" : 5126,
            "count" : 3190,
            "type" : "VEC2"
        },
        {
            "bufferView" : 39,
            "componentType" : 5123,
            "count" : 7545,
            "type" : "SCALAR"
        }
    ],
    "bufferViews" : [
        {
            "buffer" : 0,
            "byteLength" : 107304,
            "byteOffset" : 0
        },
        {
            "buffer" : 0,
            "byteLength" : 107304,
            "byteOffset" : 107304
        },
        {
            "buffer" : 0,
            "byteLength" : 71536,
            "byteOffset" : 214608
        },
        {
            "buffer" : 0,
            "byteLength" : 34518,
            "byteOffset" : 286144
        },
        {
            "buffer" : 0,
            "byteLength" : 31440,
            "byteOffset" : 320664
        },
        {
            "buffer" : 0,
            "byteLength" : 31440,
            "byteOffset" : 352104
        },
        {
            "buffer" : 0,
            "byteLength" : 20960,
            "byteOffset" : 383544
        },
        {
            "buffer" : 0,
            "byteLength" : 18288,
            "byteOffset" : 404504
        },
        {
            "buffer" : 0,
            "byteLength" : 53112,
            "byteOffset" : 422792
        },
        {
            "buffer" : 0,
            "byteLength" : 53112,
            "byteOffset" : 475904
        },
        {
            "buffer" : 0,
            "byteLength" : 35408,
            "byteOffset" : 529016
        },
        {
            "buffer" : 0,
            "byteLength" : 26820,
            "byteOffset" : 564424
        },
        {
            "buffer" : 0,
            "byteLength" : 33768,
            "byteOffset" : 591244
        },
        {
            "buffer" : 0,
            "byteLength" : 33768,
            "byteOffset" : 625012
        },
        {
            "buffer" : 0,
            "byteLength" : 22512,
            "byteOffset" : 658780
        },
        {
            "buffer" : 0,
            "byteLength" : 16626,
            "byteOffset" : 681292
        },
        {
            "buffer" : 0,
            "byteLength" : 208092,
            "byteOffset" : 697920
        },
        {
            "buffer" : 0,
            "byteLength" : 208092,
            "byteOffset" : 906012
        },
        {
            "buffer" : 0,
            "byteLength" : 138728,
            "byteOffset" : 1114104
        },
        {
            "buffer" : 0,
            "byteLength" : 83262,
            "byteOffset" : 1252832
        },
        {
            "buffer" : 0,
            "byteLength" : 41136,
            "byteOffset" : 1336096
        },
        {
            "buffer" : 0,
            "byteLength" : 41136,
            "byteOffset" : 1377232
        },
        {
            "buffer" : 0,
            "byteLength" : 27424,
            "byteOffset" : 1418368
        },
        {
            "buffer" : 0,
            "byteLength" : 29070,
            "byteOffset" : 1445792
        },
        {
            "buffer" : 0,
            "byteLength" : 29220,
            "byteOffset" : 1474864
        },
        {
            "buffer" : 0,
            "byteLength" : 29220,
            "byteOffset" : 1504084
        },
        {
            "buffer" : 0,
            "byteLength" : 19480,
            "byteOffset" : 1533304
        },
        {
            "buffer" : 0,
            "byteLength" : 24714,
            "byteOffset" : 1552784
        },
        {
            "buffer" : 0,
            "byteLength" : 15600,
            "byteOffset" : 1577500
        },
        {
            "buffer" : 0,
            "byteLength" : 15600,
            "byteOffset" : 1593100
        },
        {
            "buffer" : 0,
            "byteLength" : 10400,
            "byteOffset" : 1608700
        },
        {
            "buffer" : 0,
            "byteLength" : 6900,
            "byteOffset" : 1619100
        },
        {
            "buffer" : 0,
            "byteLength" : 23400,
            "byteOffset" : 1626000
        },
        {
            "buffer" : 0,
            "byteLength" : 23400,
            "byteOffset" : 1649400
        },
        {
            "buffer" : 0,
            "byteLength" : 15600,
            "byteOffset" : 1672800
        },
        {
            "buffer" : 0,
            "byteLength" : 12726,
            "byteOffset" : 1688400
        },
        {
            "buffer" : 0,
            "byteLength" : 38280,
            "byteOffset" : 1701128
        },
        {
            "buffer" : 0,
            "byteLength" : 38280,
            "byteOffset" : 1739408
        },
        {
            "buffer" : 0,
            "byteLength" : 25520,
            "byteOffset" : 1777688
        },
        {
            "buffer" : 0,
            "byteLength" : 15090,
            "byteOffset" : 1803208
        }
    ],
    "buffers" : [
        {
            "byteLength" : 1818300,
            "uri" : "data:application/octet-stream;base64,"
        }
    ]
}
