{
    "asset" : {
        "generator" : "Khronos glTF Blender I/O v1.6.16",
        "version" : "2.0"
    },
    "scene" : 0,
    "scenes" : [
        {
            "name" : "Scene",
            "nodes" : [
                0
            ]
        }
    ],
    "nodes" : [
        {
            "mesh" : 0,
            "name" : "Mesh78_032windscre02_1_032Group1_032Lamborghini_Aventador1_032M",
            "rotation" : [
                0.7071068286895752,
                0,
                0,
                0.7071067094802856
            ],
            "scale" : [
                3.786043405532837,
                3.786043405532837,
                3.786043405532837
            ],
            "translation" : [
                3.813394546508789,
                -4.586000442504883,
                0.039750836789608
            ]
        }
    ],
    "materials" : [
        {
            "alphaMode" : "BLEND",
            "doubleSided" : true,
            "name" : "Glass.001",
            "pbrMetallicRoughness" : {
                "baseColorFactor" : [
                    0.20791611075401306,
                    0.20791611075401306,
                    0.20791611075401306,
                    1
                ],
                "metallicFactor" : 0,
                "roughnessFactor" : 0.5
            }
        }
    ],
    "meshes" : [
        {
            "name" : "Mesh78_032windscre02_1_032Group1_032Lamborghini_Aventador1_032M",
            "primitives" : [
                {
                    "attributes" : {
                        "POSITION" : 0,
                        "NORMAL" : 1,
                        "TEXCOORD_0" : 2
                    },
                    "indices" : 3,
                    "material" : 0
                }
            ]
        }
    ],
    "accessors" : [
        {
            "bufferView" : 0,
            "componentType" : 5126,
            "count" : 510,
            "max" : [
                -0.6246920228004456,
                0.8197000026702881,
                -0.9543970227241516
            ],
            "min" : [
                -1.6766400337219238,
                -0.8602200150489807,
                -1.2810300588607788
            ],
            "type" : "VEC3"
        },
        {
            "bufferView" : 1,
            "componentType" : 5126,
            "count" : 510,
            "type" : "VEC3"
        },
        {
            "bufferView" : 2,
            "componentType" : 5126,
            "count" : 510,
            "type" : "VEC2"
        },
        {
            "bufferView" : 3,
            "componentType" : 5123,
            "count" : 510,
            "type" : "SCALAR"
        }
    ],
    "bufferViews" : [
        {
            "buffer" : 0,
            "byteLength" : 6120,
            "byteOffset" : 0
        },
        {
            "buffer" : 0,
            "byteLength" : 6120,
            "byteOffset" : 6120
        },
        {
            "buffer" : 0,
            "byteLength" : 4080,
            "byteOffset" : 12240
        },
        {
            "buffer" : 0,
            "byteLength" : 1020,
            "byteOffset" : 16320
        }
    ],
    "buffers" : [
        {
            "byteLength" : 17340,
            "uri" : "data:application/octet-stream;base64,"
        }
    ]
}
