{
    "asset" : {
        "generator" : "Khronos glTF Blender I/O v1.6.16",
        "version" : "2.0"
    },
    "extensionsUsed" : [
        "KHR_materials_transmission"
    ],
    "scene" : 0,
    "scenes" : [
        {
            "name" : "Scene",
            "nodes" : [
                0,
                1,
                2
            ]
        }
    ],
    "nodes" : [
        {
            "name" : "Light",
            "rotation" : [
                0.16907575726509094,
                0.7558803558349609,
                -0.27217137813568115,
                0.570947527885437
            ],
            "translation" : [
                4.076245307922363,
                5.903861999511719,
                -1.0054539442062378
            ]
        },
        {
            "name" : "Camera",
            "rotation" : [
                0.483536034822464,
                0.33687159419059753,
                -0.20870360732078552,
                0.7804827094078064
            ],
            "translation" : [
                7.358891487121582,
                4.958309173583984,
                6.925790786743164
            ]
        },
        {
            "mesh" : 0,
            "name" : "windows.003",
            "rotation" : [
                0.7071068286895752,
                0,
                0,
                0.7071068286895752
            ],
            "scale" : [
                0.07961302995681763,
                0.07961302995681763,
                0.07961302995681763
            ]
        }
    ],
    "materials" : [
        {
            "doubleSided" : true,
            "name" : "ground_1.002",
            "pbrMetallicRoughness" : {
                "baseColorFactor" : [
                    0.658823549747467,
                    0.658823549747467,
                    0.658823549747467,
                    1
                ],
                "metallicFactor" : 0,
                "roughnessFactor" : 0.9666666388511658
            }
        },
        {
            "doubleSided" : true,
            "name" : "wall_1_2.002",
            "pbrMetallicRoughness" : {
                "baseColorFactor" : [
                    0,
                    0.40392157435417175,
                    0.5921568870544434,
                    1
                ],
                "metallicFactor" : 0,
                "roughnessFactor" : 0.9666666388511658
            }
        },
        {
            "doubleSided" : true,
            "name" : "wall_1_3.002",
            "pbrMetallicRoughness" : {
                "baseColorFactor" : [
                    0.09019608050584793,
                    0,
                    0.3764705955982208,
                    1
                ],
                "metallicFactor" : 0,
                "roughnessFactor" : 0.8114382028579712
            }
        },
        {
            "doubleSided" : true,
            "name" : "wall_2_8.002",
            "pbrMetallicRoughness" : {
                "metallicFactor" : 0,
                "roughnessFactor" : 0.9666666388511658
            }
        },
        {
            "doubleSided" : true,
            "name" : "wall_2_9.002",
            "pbrMetallicRoughness" : {
                "baseColorFactor" : [
                    0.2235294133424759,
                    0.5333333611488342,
                    1,
                    1
                ],
                "metallicFactor" : 0,
                "roughnessFactor" : 0.8114382028579712
            }
        },
        {
            "doubleSided" : true,
            "name" : "room_3_14.002",
            "pbrMetallicRoughness" : {
                "baseColorTexture" : {
                    "index" : 0
                },
                "metallicFactor" : 0,
                "roughnessFactor" : 0.8114382028579712
            }
        },
        {
            "doubleSided" : true,
            "extensions" : {
                "KHR_materials_transmission" : {
                    "transmissionFactor" : 0.9689922332763672
                }
            },
            "name" : "white.002",
            "pbrMetallicRoughness" : {
                "baseColorFactor" : [
                    1,
                    1,
                    1,
                    0.8139535188674927
                ],
                "metallicFactor" : 0,
                "roughnessFactor" : 0.7418010830879211
            }
        },
        {
            "alphaMode" : "BLEND",
            "doubleSided" : true,
            "extensions" : {
                "KHR_materials_transmission" : {
                    "transmissionFactor" : 0.6124030947685242
                }
            },
            "name" : "flltgrey.002",
            "pbrMetallicRoughness" : {
                "baseColorFactor" : [
                    0.8245001435279846,
                    0.24063228070735931,
                    0.5031386017799377,
                    0.22868219017982483
                ],
                "metallicFactor" : 0,
                "roughnessFactor" : 0.9666666388511658
            }
        }
    ],
    "meshes" : [
        {
            "name" : "windows.003",
            "primitives" : [
                {
                    "attributes" : {
                        "POSITION" : 0,
                        "NORMAL" : 1,
                        "TEXCOORD_0" : 2
                    },
                    "indices" : 3,
                    "material" : 0
                },
                {
                    "attributes" : {
                        "POSITION" : 4,
                        "NORMAL" : 5,
                        "TEXCOORD_0" : 6
                    },
                    "indices" : 7,
                    "material" : 1
                },
                {
                    "attributes" : {
                        "POSITION" : 8,
                        "NORMAL" : 9,
                        "TEXCOORD_0" : 10
                    },
                    "indices" : 11,
                    "material" : 2
                },
                {
                    "attributes" : {
                        "POSITION" : 12,
                        "NORMAL" : 13,
                        "TEXCOORD_0" : 14
                    },
                    "indices" : 15,
                    "material" : 3
                },
                {
                    "attributes" : {
                        "POSITION" : 16,
                        "NORMAL" : 17,
                        "TEXCOORD_0" : 18
                    },
                    "indices" : 19,
                    "material" : 4
                },
                {
                    "attributes" : {
                        "POSITION" : 20,
                        "NORMAL" : 21,
                        "TEXCOORD_0" : 22
                    },
                    "indices" : 23,
                    "material" : 5
                },
                {
                    "attributes" : {
                        "POSITION" : 24,
                        "NORMAL" : 25,
                        "TEXCOORD_0" : 26
                    },
                    "indices" : 27,
                    "material" : 6
                },
                {
                    "attributes" : {
                        "POSITION" : 28,
                        "NORMAL" : 29,
                        "TEXCOORD_0" : 30
                    },
                    "indices" : 31,
                    "material" : 7
                }
            ]
        }
    ],
    "textures" : [
        {
            "sampler" : 0,
            "source" : 0
        }
    ],
    "images" : [
        {
            "bufferView" : 24,
            "mimeType" : "image/jpeg",
            "name" : "windows_room_3_14"
        }
    ],
    "accessors" : [
        {
            "bufferView" : 0,
            "componentType" : 5126,
            "count" : 8,
            "max" : [
                806.2504272460938,
                504.2455749511719,
                0
            ],
            "min" : [
                95.5,
                89.10875701904297,
                0
            ],
            "type" : "VEC3"
        },
        {
            "bufferView" : 1,
            "componentType" : 5126,
            "count" : 8,
            "type" : "VEC3"
        },
        {
            "bufferView" : 2,
            "componentType" : 5126,
            "count" : 8,
            "type" : "VEC2"
        },
        {
            "bufferView" : 3,
            "componentType" : 5123,
            "count" : 24,
            "type" : "SCALAR"
        },
        {
            "bufferView" : 4,
            "componentType" : 5126,
            "count" : 349,
            "max" : [
                805.25,
                95.55914306640625,
                0
            ],
            "min" : [
                95.5,
                91.80913543701172,
                -250
            ],
            "type" : "VEC3"
        },
        {
            "bufferView" : 5,
            "componentType" : 5126,
            "count" : 349,
            "type" : "VEC3"
        },
        {
            "bufferView" : 6,
            "componentType" : 5126,
            "count" : 349,
            "type" : "VEC2"
        },
        {
            "bufferView" : 7,
            "componentType" : 5123,
            "count" : 726,
            "type" : "SCALAR"
        },
        {
            "bufferView" : 8,
            "componentType" : 5126,
            "count" : 347,
            "max" : [
                801.5,
                99.30914306640625,
                0
            ],
            "min" : [
                95.5,
                95.55913543701172,
                -250
            ],
            "type" : "VEC3"
        },
        {
            "bufferView" : 9,
            "componentType" : 5126,
            "count" : 347,
            "type" : "VEC3"
        },
        {
            "bufferView" : 10,
            "componentType" : 5126,
            "count" : 347,
            "type" : "VEC2"
        },
        {
            "bufferView" : 11,
            "componentType" : 5123,
            "count" : 726,
            "type" : "SCALAR"
        },
        {
            "bufferView" : 12,
            "componentType" : 5126,
            "count" : 98,
            "max" : [
                805.25,
                503.55914306640625,
                0
            ],
            "min" : [
                801.5,
                91.80914306640625,
                -250
            ],
            "type" : "VEC3"
        },
        {
            "bufferView" : 13,
            "componentType" : 5126,
            "count" : 98,
            "type" : "VEC3"
        },
        {
            "bufferView" : 14,
            "componentType" : 5126,
            "count" : 98,
            "type" : "VEC2"
        },
        {
            "bufferView" : 15,
            "componentType" : 5123,
            "count" : 174,
            "type" : "SCALAR"
        },
        {
            "bufferView" : 16,
            "componentType" : 5126,
            "count" : 99,
            "max" : [
                801.5,
                503.55914306640625,
                0
            ],
            "min" : [
                797.75,
                95.55914306640625,
                -250
            ],
            "type" : "VEC3"
        },
        {
            "bufferView" : 17,
            "componentType" : 5126,
            "count" : 99,
            "type" : "VEC3"
        },
        {
            "bufferView" : 18,
            "componentType" : 5126,
            "count" : 99,
            "type" : "VEC2"
        },
        {
            "bufferView" : 19,
            "componentType" : 5123,
            "count" : 174,
            "type" : "SCALAR"
        },
        {
            "bufferView" : 20,
            "componentType" : 5126,
            "count" : 4,
            "max" : [
                799.5,
                503.5592041015625,
                0
            ],
            "min" : [
                99.5,
                99.55921936035156,
                0
            ],
            "type" : "VEC3"
        },
        {
            "bufferView" : 21,
            "componentType" : 5126,
            "count" : 4,
            "type" : "VEC3"
        },
        {
            "bufferView" : 22,
            "componentType" : 5126,
            "count" : 4,
            "type" : "VEC2"
        },
        {
            "bufferView" : 23,
            "componentType" : 5123,
            "count" : 6,
            "type" : "SCALAR"
        },
        {
            "bufferView" : 25,
            "componentType" : 5126,
            "count" : 2138,
            "max" : [
                806.2504272460938,
                504.2455749511719,
                0
            ],
            "min" : [
                119.5,
                89.1087646484375,
                -221
            ],
            "type" : "VEC3"
        },
        {
            "bufferView" : 26,
            "componentType" : 5126,
            "count" : 2138,
            "type" : "VEC3"
        },
        {
            "bufferView" : 27,
            "componentType" : 5126,
            "count" : 2138,
            "type" : "VEC2"
        },
        {
            "bufferView" : 28,
            "componentType" : 5123,
            "count" : 6654,
            "type" : "SCALAR"
        },
        {
            "bufferView" : 29,
            "componentType" : 5126,
            "count" : 362,
            "max" : [
                799.5155029296875,
                494.8160400390625,
                -19.407833099365234
            ],
            "min" : [
                148.5,
                91.65676879882812,
                -220.3490753173828
            ],
            "type" : "VEC3"
        },
        {
            "bufferView" : 30,
            "componentType" : 5126,
            "count" : 362,
            "type" : "VEC3"
        },
        {
            "bufferView" : 31,
            "componentType" : 5126,
            "count" : 362,
            "type" : "VEC2"
        },
        {
            "bufferView" : 32,
            "componentType" : 5123,
            "count" : 636,
            "type" : "SCALAR"
        }
    ],
    "bufferViews" : [
        {
            "buffer" : 0,
            "byteLength" : 96,
            "byteOffset" : 0
        },
        {
            "buffer" : 0,
            "byteLength" : 96,
            "byteOffset" : 96
        },
        {
            "buffer" : 0,
            "byteLength" : 64,
            "byteOffset" : 192
        },
        {
            "buffer" : 0,
            "byteLength" : 48,
            "byteOffset" : 256
        },
        {
            "buffer" : 0,
            "byteLength" : 4188,
            "byteOffset" : 304
        },
        {
            "buffer" : 0,
            "byteLength" : 4188,
            "byteOffset" : 4492
        },
        {
            "buffer" : 0,
            "byteLength" : 2792,
            "byteOffset" : 8680
        },
        {
            "buffer" : 0,
            "byteLength" : 1452,
            "byteOffset" : 11472
        },
        {
            "buffer" : 0,
            "byteLength" : 4164,
            "byteOffset" : 12924
        },
        {
            "buffer" : 0,
            "byteLength" : 4164,
            "byteOffset" : 17088
        },
        {
            "buffer" : 0,
            "byteLength" : 2776,
            "byteOffset" : 21252
        },
        {
            "buffer" : 0,
            "byteLength" : 1452,
            "byteOffset" : 24028
        },
        {
            "buffer" : 0,
            "byteLength" : 1176,
            "byteOffset" : 25480
        },
        {
            "buffer" : 0,
            "byteLength" : 1176,
            "byteOffset" : 26656
        },
        {
            "buffer" : 0,
            "byteLength" : 784,
            "byteOffset" : 27832
        },
        {
            "buffer" : 0,
            "byteLength" : 348,
            "byteOffset" : 28616
        },
        {
            "buffer" : 0,
            "byteLength" : 1188,
            "byteOffset" : 28964
        },
        {
            "buffer" : 0,
            "byteLength" : 1188,
            "byteOffset" : 30152
        },
        {
            "buffer" : 0,
            "byteLength" : 792,
            "byteOffset" : 31340
        },
        {
            "buffer" : 0,
            "byteLength" : 348,
            "byteOffset" : 32132
        },
        {
            "buffer" : 0,
            "byteLength" : 48,
            "byteOffset" : 32480
        },
        {
            "buffer" : 0,
            "byteLength" : 48,
            "byteOffset" : 32528
        },
        {
            "buffer" : 0,
            "byteLength" : 32,
            "byteOffset" : 32576
        },
        {
            "buffer" : 0,
            "byteLength" : 12,
            "byteOffset" : 32608
        },
        {
            "buffer" : 0,
            "byteLength" : 18916,
            "byteOffset" : 32620
        },
        {
            "buffer" : 0,
            "byteLength" : 25656,
            "byteOffset" : 51536
        },
        {
            "buffer" : 0,
            "byteLength" : 25656,
            "byteOffset" : 77192
        },
        {
            "buffer" : 0,
            "byteLength" : 17104,
            "byteOffset" : 102848
        },
        {
            "buffer" : 0,
            "byteLength" : 13308,
            "byteOffset" : 119952
        },
        {
            "buffer" : 0,
            "byteLength" : 4344,
            "byteOffset" : 133260
        },
        {
            "buffer" : 0,
            "byteLength" : 4344,
            "byteOffset" : 137604
        },
        {
            "buffer" : 0,
            "byteLength" : 2896,
            "byteOffset" : 141948
        },
        {
            "buffer" : 0,
            "byteLength" : 1272,
            "byteOffset" : 144844
        }
    ],
    "samplers" : [
        {
            "magFilter" : 9729,
            "minFilter" : 9987
        }
    ],
    "buffers" : [
        {
            "byteLength" : 146116,
            "uri" : "data:application/octet-stream;base64,"
        }
    ]
}
